<svg width="630" height="420" viewBox="0 0 630 420" fill="none" xmlns="http://www.w3.org/2000/svg">
<path d="M13.9242 329.427C8.41719 334.934 2.43419 337.881 0.563191 336.009C-1.30881 334.137 1.63819 328.155 7.14619 322.647C12.6532 317.14 18.6352 314.193 20.5072 316.065C22.3792 317.937 19.4312 323.919 13.9242 329.427Z" fill="#BEDBF7"/>
<path d="M38.0922 228.698C20.1912 246.599 4.25418 259.684 2.49518 257.924C0.736182 256.165 13.8212 240.227 31.7212 222.326C49.6212 204.425 65.5592 191.34 67.3192 193.1C69.0792 194.86 55.9922 210.797 38.0922 228.698Z" fill="#BEDBF7"/>
<path d="M617.496 329.161H503.555C497.444 329.161 492.49 324.207 492.49 318.096V165.046C492.49 158.935 497.444 153.981 503.555 153.981H617.496C623.607 153.981 628.561 158.935 628.561 165.046V318.096C628.561 324.207 623.607 329.161 617.496 329.161Z" stroke="#BEDBF7" stroke-width="1.0668" stroke-miterlimit="10"/>
<path d="M301.979 191.476H78.6112C72.4612 191.476 67.4762 186.491 67.4762 180.341V73.4508C67.4762 67.3008 72.4612 62.3158 78.6112 62.3158H301.978C308.128 62.3158 313.113 67.3008 313.113 73.4508V180.341C313.113 186.491 308.128 191.476 301.979 191.476Z" stroke="#BEDBF7" stroke-width="1.0668" stroke-miterlimit="10"/>
<path d="M308.61 98.6398C149.32 98.6398 20.1912 227.77 20.1912 387.059C20.1912 387.428 20.2042 387.794 20.2052 388.163H597.015C597.016 387.794 597.029 387.428 597.029 387.059C597.029 227.77 467.9 98.6398 308.61 98.6398Z" fill="#FFCC40"/>
<path d="M621.442 297.75C621.442 297.75 619.442 301.717 622.642 314.836C625.843 327.954 623.442 333.296 617.841 341.427C612.24 349.558 595.638 366.96 596.638 388.164H564.648C564.648 388.164 570.434 373.962 572.035 360.56C573.635 347.158 581.884 339.157 594.362 332.756C606.839 326.354 610.84 301.95 621.442 297.75Z" fill="#57A845"/>
<path d="M621.442 297.75C621.442 297.75 614.041 304.118 613.041 314.836C612.041 325.554 610.441 333.755 601.039 342.957C591.638 352.158 580.436 365.96 580.436 388.164" stroke="#283847" stroke-width="1.2169" stroke-miterlimit="10"/>
<path d="M600.729 327.327C598.848 329.62 596.763 331.523 594.361 332.755C581.883 339.156 573.634 347.157 572.034 360.559C570.434 373.961 564.647 388.163 564.647 388.163H596.637C596.112 377.036 600.436 366.958 605.473 358.715C603.479 347.842 601.162 335.978 600.729 327.327Z" fill="#283847"/>
<path d="M621.442 200.035C621.442 200.035 619.042 204.236 621.442 215.037C623.842 225.839 625.309 239.341 620.375 245.342C615.441 251.343 607.94 258.544 605.239 271.146C602.539 283.748 608.84 292.749 602.239 303.551C595.638 314.353 589.337 316.004 588.137 330.48C586.937 344.957 598.038 358.759 571.634 388.163H511.679C511.679 388.163 530.528 352.758 535.928 334.155C541.329 315.552 536.828 306.851 545.229 294.099C553.63 281.347 565.332 285.231 570.433 273.388C575.534 261.545 575.534 251.343 582.735 243.842C589.936 236.341 601.638 233.34 606.264 221.826C610.739 210.689 617.541 201.835 621.442 200.035Z" fill="#57A845"/>
<path d="M621.442 200.035C612.244 210.134 611.841 222.738 611.241 231.94C610.641 241.141 596.839 244.142 592.038 256.444C587.237 268.746 587.837 280.206 582.136 290.678C576.435 301.151 567.434 302.351 561.133 316.753C554.832 331.155 564.434 364.16 541.93 388.164" stroke="#283847" stroke-width="1.2169" stroke-miterlimit="10"/>
<path d="M507.336 230.744C549.814 188.266 549.814 119.394 507.336 76.9148C464.857 34.4359 395.985 34.4359 353.506 76.9148C311.027 119.394 311.027 188.266 353.506 230.744C395.985 273.223 464.857 273.223 507.336 230.744Z" fill="#FF9D38"/>
<path d="M531.333 74.2598C508.821 74.2598 490.571 92.5098 490.571 115.021C490.571 119.526 491.313 123.856 492.662 127.907L472.256 150.581L500.298 141.433C507.775 150.209 518.899 155.782 531.332 155.782C553.844 155.782 572.093 137.532 572.093 115.02C572.094 92.5098 553.845 74.2598 531.333 74.2598Z" fill="#FFCC40"/>
<path d="M527.331 133.193C526.527 133.193 525.724 132.886 525.11 132.273L505.333 112.496C504.106 111.27 504.106 109.281 505.333 108.055C506.56 106.828 508.547 106.828 509.774 108.055L527.331 125.611L552.892 100.052C554.119 98.8248 556.106 98.8248 557.333 100.052C558.56 101.278 558.56 103.267 557.333 104.493L529.552 132.274C528.938 132.886 528.134 133.193 527.331 133.193Z" fill="#57A845"/>
<path d="M46.2692 200.035C46.2692 200.035 48.6692 204.236 46.2692 215.037C43.8692 225.839 42.4022 239.341 47.3362 245.342C52.2702 251.343 59.7712 258.544 62.4722 271.146C65.1722 283.748 58.8712 292.749 65.4722 303.551C72.0732 314.353 78.3742 316.004 79.5742 330.48C80.7742 344.957 69.6722 358.759 96.0772 388.163H156.032C156.032 388.163 137.183 352.758 131.783 334.155C126.382 315.552 130.883 306.851 122.482 294.099C114.081 281.347 102.379 285.231 97.2782 273.388C92.1772 261.545 92.1772 251.343 84.9762 243.842C77.7752 236.341 66.0732 233.34 61.4472 221.826C56.9712 210.689 50.1702 201.835 46.2692 200.035Z" fill="#57A845"/>
<path d="M79.5742 330.48C80.7742 344.957 69.6722 358.759 96.0772 388.163H156.032C156.032 388.163 137.183 352.758 131.783 334.155C126.382 315.552 130.883 306.851 122.482 294.099C114.081 281.347 102.379 285.231 97.2782 273.388C92.1772 261.545 92.1772 251.343 84.9762 243.842C83.9842 242.809 82.9022 241.866 81.7702 240.97C81.6462 262.095 77.3862 296.256 75.5162 317.074C77.5682 320.323 79.0532 324.191 79.5742 330.48Z" fill="#283847"/>
<path d="M46.2692 200.035C55.4672 210.134 55.8702 222.738 56.4702 231.94C57.0702 241.141 70.8722 244.142 75.6732 256.444C80.4742 268.746 79.8742 280.206 85.5752 290.678C91.2762 301.151 100.277 302.351 106.578 316.753C112.879 331.155 103.277 364.16 125.781 388.164" stroke="#283847" stroke-width="1.2169" stroke-miterlimit="10"/>
<path d="M361.557 330.48H95.0442C89.0992 330.48 84.2792 325.66 84.2792 319.715V106.685C84.2792 100.739 89.0992 95.9198 95.0442 95.9198H361.557C367.502 95.9198 372.322 100.74 372.322 106.685V319.715C372.322 325.66 367.502 330.48 361.557 330.48Z" fill="white"/>
<path d="M288.91 125.751V330.48H361.557C367.502 330.48 372.322 325.66 372.322 319.715V125.751H288.91Z" fill="#E4EEF7"/>
<path d="M304.378 159.927H303.196L306.615 150.617H307.779L311.197 159.927H310.015L307.233 152.09H307.16L304.378 159.927ZM304.814 156.29H309.579V157.29H304.814V156.29ZM318.758 150.617H319.885V156.781C319.885 157.418 319.735 157.986 319.435 158.486C319.138 158.983 318.718 159.376 318.176 159.664C317.633 159.948 316.997 160.091 316.266 160.091C315.536 160.091 314.899 159.948 314.357 159.664C313.814 159.376 313.393 158.983 313.093 158.486C312.796 157.986 312.647 157.418 312.647 156.781V150.617H313.775V156.69C313.775 157.145 313.875 157.55 314.075 157.904C314.275 158.256 314.56 158.533 314.93 158.736C315.302 158.936 315.748 159.036 316.266 159.036C316.784 159.036 317.23 158.936 317.603 158.736C317.976 158.533 318.26 158.256 318.457 157.904C318.658 157.55 318.758 157.145 318.758 156.69V150.617ZM328.501 153.526C328.401 153.22 328.269 152.946 328.106 152.703C327.945 152.458 327.752 152.249 327.528 152.076C327.307 151.903 327.055 151.771 326.774 151.68C326.492 151.59 326.183 151.544 325.846 151.544C325.295 151.544 324.793 151.687 324.341 151.971C323.89 152.256 323.531 152.676 323.264 153.231C322.997 153.785 322.864 154.466 322.864 155.272C322.864 156.078 322.999 156.759 323.268 157.313C323.538 157.868 323.903 158.288 324.364 158.572C324.825 158.857 325.343 159 325.919 159C326.452 159 326.922 158.886 327.328 158.659C327.737 158.428 328.056 158.104 328.283 157.686C328.513 157.265 328.628 156.769 328.628 156.199L328.974 156.272H326.173V155.272H329.719V156.272C329.719 157.039 329.556 157.706 329.228 158.272C328.904 158.839 328.456 159.279 327.883 159.591C327.313 159.9 326.658 160.054 325.919 160.054C325.095 160.054 324.37 159.861 323.746 159.473C323.125 159.085 322.64 158.533 322.291 157.818C321.946 157.103 321.773 156.254 321.773 155.272C321.773 154.535 321.871 153.873 322.068 153.285C322.268 152.694 322.55 152.191 322.914 151.776C323.278 151.361 323.708 151.042 324.205 150.821C324.702 150.6 325.249 150.489 325.846 150.489C326.337 150.489 326.795 150.564 327.219 150.712C327.646 150.858 328.027 151.065 328.36 151.335C328.697 151.602 328.977 151.921 329.201 152.294C329.425 152.664 329.58 153.075 329.665 153.526H328.501ZM337.76 150.617H338.888V156.781C338.888 157.418 338.738 157.986 338.438 158.486C338.141 158.983 337.721 159.376 337.179 159.664C336.636 159.948 336 160.091 335.269 160.091C334.539 160.091 333.902 159.948 333.36 159.664C332.817 159.376 332.396 158.983 332.096 158.486C331.799 157.986 331.65 157.418 331.65 156.781V150.617H332.778V156.69C332.778 157.145 332.878 157.55 333.078 157.904C333.278 158.256 333.563 158.533 333.933 158.736C334.305 158.936 334.751 159.036 335.269 159.036C335.787 159.036 336.233 158.936 336.606 158.736C336.979 158.533 337.263 158.256 337.46 157.904C337.66 157.55 337.76 157.145 337.76 156.69V150.617ZM346.231 152.944C346.177 152.484 345.955 152.126 345.567 151.871C345.179 151.617 344.704 151.49 344.14 151.49C343.728 151.49 343.367 151.556 343.058 151.69C342.752 151.823 342.512 152.006 342.34 152.24C342.17 152.473 342.085 152.738 342.085 153.035C342.085 153.284 342.144 153.497 342.262 153.676C342.384 153.852 342.538 153.999 342.726 154.117C342.914 154.232 343.111 154.328 343.317 154.404C343.523 154.476 343.713 154.535 343.885 154.581L344.831 154.835C345.073 154.899 345.343 154.987 345.64 155.099C345.94 155.211 346.227 155.364 346.499 155.558C346.775 155.749 347.002 155.995 347.181 156.295C347.36 156.595 347.45 156.963 347.45 157.4C347.45 157.903 347.318 158.357 347.054 158.763C346.793 159.17 346.411 159.492 345.908 159.732C345.408 159.971 344.801 160.091 344.085 160.091C343.419 160.091 342.841 159.983 342.353 159.768C341.868 159.553 341.486 159.253 341.208 158.868C340.932 158.483 340.776 158.036 340.739 157.527H341.903C341.933 157.878 342.052 158.169 342.258 158.4C342.467 158.627 342.731 158.797 343.049 158.909C343.37 159.018 343.716 159.073 344.085 159.073C344.516 159.073 344.902 159.003 345.245 158.863C345.587 158.721 345.858 158.524 346.058 158.272C346.258 158.018 346.358 157.721 346.358 157.381C346.358 157.072 346.272 156.821 346.099 156.627C345.927 156.433 345.699 156.275 345.417 156.154C345.136 156.033 344.831 155.927 344.504 155.836L343.358 155.508C342.631 155.299 342.055 155.001 341.63 154.613C341.206 154.225 340.994 153.717 340.994 153.09C340.994 152.568 341.135 152.114 341.417 151.726C341.702 151.335 342.084 151.032 342.562 150.817C343.044 150.598 343.582 150.489 344.176 150.489C344.776 150.489 345.31 150.597 345.777 150.812C346.243 151.024 346.613 151.315 346.886 151.685C347.162 152.055 347.307 152.475 347.322 152.944H346.231ZM348.794 151.617V150.617H355.777V151.617H352.849V159.927H351.722V151.617H348.794Z" fill="#3A65C9"/>
<path d="M303.896 191.476C303.896 193.377 302.355 194.919 300.453 194.919C298.552 194.919 297.01 193.378 297.01 191.476C297.01 189.575 298.551 188.033 300.453 188.033C302.355 188.033 303.896 189.574 303.896 191.476Z" stroke="#3A65C9" stroke-width="1.0668" stroke-miterlimit="10"/>
<path d="M308.913 191.476H360.571" stroke="#3A65C9" stroke-width="1.0668" stroke-miterlimit="10"/>
<path d="M300.454 222.758C302.356 222.758 303.897 221.216 303.897 219.315C303.897 217.413 302.356 215.872 300.454 215.872C298.553 215.872 297.011 217.413 297.011 219.315C297.011 221.216 298.553 222.758 300.454 222.758Z" stroke="#3A65C9" stroke-width="1.0668" stroke-miterlimit="10"/>
<path d="M308.913 219.315H360.571" stroke="#3A65C9" stroke-width="1.0668" stroke-miterlimit="10"/>
<path d="M300.454 250.597C302.356 250.597 303.897 249.055 303.897 247.154C303.897 245.252 302.356 243.711 300.454 243.711C298.553 243.711 297.011 245.252 297.011 247.154C297.011 249.055 298.553 250.597 300.454 250.597Z" stroke="#3A65C9" stroke-width="1.0668" stroke-miterlimit="10"/>
<path d="M308.913 247.154H360.571" stroke="#3A65C9" stroke-width="1.0668" stroke-miterlimit="10"/>
<path d="M142.718 178.736C143.489 173.86 140.161 169.282 135.284 168.511C130.408 167.741 125.831 171.069 125.06 175.945C124.289 180.821 127.618 185.399 132.494 186.169C137.37 186.94 141.948 183.612 142.718 178.736Z" stroke="#3A65C9" stroke-width="1.001" stroke-miterlimit="10"/>
<path d="M167.088 183.649C170.579 180.158 170.579 174.498 167.088 171.007C163.597 167.516 157.937 167.516 154.446 171.007C150.955 174.498 150.955 180.158 154.446 183.649C157.937 187.139 163.597 187.139 167.088 183.649Z" stroke="#3A65C9" stroke-width="1.001" stroke-miterlimit="10"/>
<path d="M196.361 179.368C197.492 174.562 194.512 169.75 189.705 168.62C184.899 167.49 180.087 170.47 178.957 175.276C177.827 180.082 180.807 184.894 185.613 186.024C190.419 187.154 195.231 184.174 196.361 179.368Z" stroke="#3A65C9" stroke-width="1.001" stroke-miterlimit="10"/>
<path d="M223.342 178.738C224.13 173.864 220.819 169.274 215.945 168.485C211.071 167.697 206.481 171.009 205.693 175.883C204.904 180.756 208.216 185.346 213.09 186.135C217.964 186.923 222.554 183.611 223.342 178.738Z" stroke="#3A65C9" stroke-width="1.001" stroke-miterlimit="10"/>
<path d="M250.216 178.736C251.004 173.863 247.693 169.273 242.819 168.484C237.945 167.696 233.355 171.008 232.567 175.881C231.778 180.755 235.09 185.345 239.964 186.133C244.837 186.922 249.427 183.61 250.216 178.736Z" stroke="#3A65C9" stroke-width="1.001" stroke-miterlimit="10"/>
<path d="M277.07 178.79C277.874 173.919 274.578 169.319 269.707 168.515C264.836 167.71 260.236 171.007 259.432 175.878C258.628 180.748 261.924 185.349 266.795 186.153C271.666 186.957 276.266 183.661 277.07 178.79Z" stroke="#3A65C9" stroke-width="1.001" stroke-miterlimit="10"/>
<path d="M107.02 217.453C111.957 217.453 115.959 213.451 115.959 208.514C115.959 203.577 111.957 199.575 107.02 199.575C102.083 199.575 98.0812 203.577 98.0812 208.514C98.0812 213.451 102.083 217.453 107.02 217.453Z" stroke="#3A65C9" stroke-width="1.001" stroke-miterlimit="10"/>
<path d="M133.895 217.453C138.832 217.453 142.834 213.451 142.834 208.514C142.834 203.577 138.832 199.575 133.895 199.575C128.958 199.575 124.956 203.577 124.956 208.514C124.956 213.451 128.958 217.453 133.895 217.453Z" stroke="#3A65C9" stroke-width="1.001" stroke-miterlimit="10"/>
<path d="M160.77 217.453C165.707 217.453 169.709 213.451 169.709 208.514C169.709 203.577 165.707 199.575 160.77 199.575C155.833 199.575 151.831 203.577 151.831 208.514C151.831 213.451 155.833 217.453 160.77 217.453Z" stroke="#3A65C9" stroke-width="1.001" stroke-miterlimit="10"/>
<path d="M187.645 217.453C192.582 217.453 196.584 213.451 196.584 208.514C196.584 203.577 192.582 199.575 187.645 199.575C182.708 199.575 178.706 203.577 178.706 208.514C178.706 213.451 182.708 217.453 187.645 217.453Z" fill="#FF5521"/>
<path d="M214.519 217.453C219.456 217.453 223.458 213.451 223.458 208.514C223.458 203.577 219.456 199.575 214.519 199.575C209.582 199.575 205.58 203.577 205.58 208.514C205.58 213.451 209.582 217.453 214.519 217.453Z" stroke="#3A65C9" stroke-width="1.001" stroke-miterlimit="10"/>
<path d="M241.394 217.453C246.331 217.453 250.333 213.451 250.333 208.514C250.333 203.577 246.331 199.575 241.394 199.575C236.457 199.575 232.455 203.577 232.455 208.514C232.455 213.451 236.457 217.453 241.394 217.453Z" stroke="#3A65C9" stroke-width="1.001" stroke-miterlimit="10"/>
<path d="M268.269 217.453C273.206 217.453 277.208 213.451 277.208 208.514C277.208 203.577 273.206 199.575 268.269 199.575C263.332 199.575 259.33 203.577 259.33 208.514C259.33 213.451 263.332 217.453 268.269 217.453Z" stroke="#3A65C9" stroke-width="1.001" stroke-miterlimit="10"/>
<path d="M107.02 248.639C111.957 248.639 115.959 244.637 115.959 239.7C115.959 234.763 111.957 230.761 107.02 230.761C102.083 230.761 98.0812 234.763 98.0812 239.7C98.0812 244.637 102.083 248.639 107.02 248.639Z" stroke="#3A65C9" stroke-width="1.001" stroke-miterlimit="10"/>
<path d="M133.895 248.639C138.832 248.639 142.834 244.637 142.834 239.7C142.834 234.763 138.832 230.761 133.895 230.761C128.958 230.761 124.956 234.763 124.956 239.7C124.956 244.637 128.958 248.639 133.895 248.639Z" stroke="#3A65C9" stroke-width="1.001" stroke-miterlimit="10"/>
<path d="M160.77 248.639C165.707 248.639 169.709 244.637 169.709 239.7C169.709 234.763 165.707 230.761 160.77 230.761C155.833 230.761 151.831 234.763 151.831 239.7C151.831 244.637 155.833 248.639 160.77 248.639Z" stroke="#3A65C9" stroke-width="1.001" stroke-miterlimit="10"/>
<path d="M187.645 248.639C192.582 248.639 196.584 244.637 196.584 239.7C196.584 234.763 192.582 230.761 187.645 230.761C182.708 230.761 178.706 234.763 178.706 239.7C178.706 244.637 182.708 248.639 187.645 248.639Z" stroke="#3A65C9" stroke-width="1.001" stroke-miterlimit="10"/>
<path d="M214.519 248.639C219.456 248.639 223.458 244.637 223.458 239.7C223.458 234.763 219.456 230.761 214.519 230.761C209.582 230.761 205.58 234.763 205.58 239.7C205.58 244.637 209.582 248.639 214.519 248.639Z" stroke="#3A65C9" stroke-width="1.001" stroke-miterlimit="10"/>
<path d="M241.394 248.639C246.331 248.639 250.333 244.637 250.333 239.7C250.333 234.763 246.331 230.761 241.394 230.761C236.457 230.761 232.455 234.763 232.455 239.7C232.455 244.637 236.457 248.639 241.394 248.639Z" stroke="#3A65C9" stroke-width="1.001" stroke-miterlimit="10"/>
<path d="M268.269 248.639C273.206 248.639 277.208 244.637 277.208 239.7C277.208 234.763 273.206 230.761 268.269 230.761C263.332 230.761 259.33 234.763 259.33 239.7C259.33 244.637 263.332 248.639 268.269 248.639Z" stroke="#3A65C9" stroke-width="1.001" stroke-miterlimit="10"/>
<path d="M110.449 279.148C115.01 277.259 117.176 272.03 115.287 267.468C113.398 262.907 108.168 260.741 103.607 262.631C99.046 264.52 96.8801 269.749 98.7694 274.31C100.659 278.872 105.888 281.038 110.449 279.148Z" stroke="#3A65C9" stroke-width="1.001" stroke-miterlimit="10"/>
<path d="M137.134 279.22C141.732 277.425 144.005 272.241 142.209 267.642C140.414 263.044 135.23 260.771 130.632 262.567C126.033 264.362 123.76 269.546 125.556 274.145C127.352 278.743 132.535 281.016 137.134 279.22Z" stroke="#3A65C9" stroke-width="1.001" stroke-miterlimit="10"/>
<path d="M169.447 272.945C170.586 268.141 167.615 263.324 162.811 262.186C158.008 261.047 153.191 264.019 152.052 268.822C150.914 273.626 153.885 278.443 158.688 279.581C163.492 280.72 168.309 277.748 169.447 272.945Z" stroke="#3A65C9" stroke-width="1.001" stroke-miterlimit="10"/>
<path d="M193.962 277.206C197.453 273.715 197.453 268.055 193.962 264.564C190.471 261.073 184.811 261.073 181.32 264.564C177.83 268.055 177.83 273.715 181.32 277.206C184.811 280.697 190.471 280.697 193.962 277.206Z" stroke="#3A65C9" stroke-width="1.001" stroke-miterlimit="10"/>
<path d="M217.909 279.142C222.475 277.263 224.652 272.039 222.773 267.474C220.894 262.909 215.67 260.732 211.105 262.611C206.54 264.49 204.362 269.714 206.241 274.279C208.12 278.844 213.344 281.021 217.909 279.142Z" stroke="#3A65C9" stroke-width="1.001" stroke-miterlimit="10"/>
<path d="M244.783 279.143C249.349 277.264 251.526 272.04 249.647 267.474C247.768 262.909 242.544 260.732 237.979 262.611C233.414 264.49 231.236 269.714 233.115 274.279C234.994 278.844 240.218 281.022 244.783 279.143Z" stroke="#3A65C9" stroke-width="1.001" stroke-miterlimit="10"/>
<path d="M271.819 279.084C276.353 277.13 278.445 271.871 276.491 267.337C274.538 262.803 269.279 260.711 264.745 262.665C260.211 264.618 258.119 269.877 260.072 274.411C262.026 278.945 267.285 281.037 271.819 279.084Z" stroke="#3A65C9" stroke-width="1.001" stroke-miterlimit="10"/>
<path d="M107.02 311.011C111.957 311.011 115.959 307.009 115.959 302.072C115.959 297.135 111.957 293.133 107.02 293.133C102.083 293.133 98.0812 297.135 98.0812 302.072C98.0812 307.009 102.083 311.011 107.02 311.011Z" stroke="#3A65C9" stroke-width="1.001" stroke-miterlimit="10"/>
<path d="M133.895 311.011C138.832 311.011 142.834 307.009 142.834 302.072C142.834 297.135 138.832 293.133 133.895 293.133C128.958 293.133 124.956 297.135 124.956 302.072C124.956 307.009 128.958 311.011 133.895 311.011Z" stroke="#3A65C9" stroke-width="1.001" stroke-miterlimit="10"/>
<path d="M160.77 311.011C165.707 311.011 169.709 307.009 169.709 302.072C169.709 297.135 165.707 293.133 160.77 293.133C155.833 293.133 151.831 297.135 151.831 302.072C151.831 307.009 155.833 311.011 160.77 311.011Z" stroke="#3A65C9" stroke-width="1.001" stroke-miterlimit="10"/>
<path d="M103.297 152.945L104.001 151.384C104.756 151.934 105.882 152.318 106.957 152.318C108.185 152.318 108.684 151.908 108.684 151.358C108.684 149.682 103.477 150.833 103.477 147.507C103.477 145.984 104.705 144.718 107.251 144.718C108.377 144.718 109.528 144.986 110.36 145.511L109.72 147.085C108.889 146.611 108.031 146.381 107.238 146.381C106.01 146.381 105.536 146.842 105.536 147.405C105.536 149.055 110.744 147.917 110.744 151.205C110.744 152.702 109.503 153.981 106.944 153.981C105.523 153.981 104.09 153.559 103.297 152.945Z" fill="#FF5521"/>
<path d="M136.997 153.828L136.984 148.454L134.349 152.881H133.415L130.792 148.569V153.828H128.847V144.871H130.561L133.913 150.437L137.215 144.871H138.916L138.942 153.828H136.997Z" fill="#3A65C9"/>
<path d="M159.733 146.56H156.867V144.871H164.672V146.56H161.806V153.828H159.733V146.56Z" fill="#3A65C9"/>
<path d="M194.803 144.871L191.873 153.828H189.647L187.676 147.763L185.642 153.828H183.429L180.486 144.871H182.636L184.658 151.166L186.769 144.871H188.688L190.735 151.217L192.821 144.871H194.803Z" fill="#3A65C9"/>
<path d="M213.483 146.56H210.617V144.871H218.422V146.56H215.556V153.828H213.483V146.56Z" fill="#3A65C9"/>
<path d="M240.083 146.535V148.902H244.228V150.566H240.083V153.828H238.01V144.871H244.778V146.534L240.083 146.535Z" fill="#3A65C9"/>
<path d="M264.546 152.945L265.25 151.384C266.005 151.934 267.13 152.318 268.206 152.318C269.434 152.318 269.933 151.908 269.933 151.358C269.933 149.682 264.726 150.833 264.726 147.507C264.726 145.984 265.954 144.718 268.501 144.718C269.627 144.718 270.778 144.986 271.61 145.511L270.97 147.085C270.139 146.611 269.281 146.381 268.488 146.381C267.26 146.381 266.786 146.842 266.786 147.405C266.786 149.055 271.993 147.917 271.993 151.205C271.993 152.702 270.752 153.981 268.193 153.981C266.772 153.981 265.339 153.559 264.546 152.945Z" fill="#3A65C9"/>
<path d="M372.322 134.613H84.2792V106.685C84.2792 100.739 89.0992 95.9198 95.0442 95.9198H361.557C367.502 95.9198 372.322 100.74 372.322 106.685V134.613Z" fill="#FFCC40"/>
<path d="M145.686 114.427C135.465 114.427 127.178 106.141 127.178 95.9188C127.178 85.6968 135.464 77.4108 145.686 77.4108C155.907 77.4108 164.194 85.6968 164.194 95.9188" stroke="#3A65C9" stroke-width="2.1337" stroke-miterlimit="10" stroke-linecap="round" stroke-linejoin="round"/>
<path d="M173.224 114.427C163.003 114.427 154.716 106.141 154.716 95.9188C154.716 85.6968 163.002 77.4108 173.224 77.4108C183.445 77.4108 191.732 85.6968 191.732 95.9188" stroke="#3A65C9" stroke-width="2.1337" stroke-miterlimit="10" stroke-linecap="round" stroke-linejoin="round"/>
<path d="M200.762 114.427C190.54 114.427 182.254 106.141 182.254 95.9188C182.254 85.6968 190.54 77.4108 200.762 77.4108C210.983 77.4108 219.27 85.6968 219.27 95.9188" stroke="#3A65C9" stroke-width="2.1337" stroke-miterlimit="10" stroke-linecap="round" stroke-linejoin="round"/>
<path d="M228.301 114.427C218.08 114.427 209.793 106.141 209.793 95.9188C209.793 85.6968 218.079 77.4108 228.301 77.4108C238.522 77.4108 246.808 85.6968 246.808 95.9188" stroke="#3A65C9" stroke-width="2.1337" stroke-miterlimit="10" stroke-linecap="round" stroke-linejoin="round"/>
<path d="M255.839 114.427C245.618 114.427 237.332 106.141 237.332 95.9188C237.332 85.6968 245.618 77.4108 255.839 77.4108C266.061 77.4108 274.347 85.6968 274.347 95.9188" stroke="#3A65C9" stroke-width="2.1337" stroke-miterlimit="10" stroke-linecap="round" stroke-linejoin="round"/>
<path d="M283.377 114.427C273.156 114.427 264.87 106.141 264.87 95.9188C264.87 85.6968 273.156 77.4108 283.377 77.4108C293.599 77.4108 301.885 85.6968 301.885 95.9188" stroke="#3A65C9" stroke-width="2.1337" stroke-miterlimit="10" stroke-linecap="round" stroke-linejoin="round"/>
<path d="M310.915 114.427C300.694 114.427 292.407 106.141 292.407 95.9188C292.407 85.6968 300.693 77.4108 310.915 77.4108C321.137 77.4108 329.423 85.6968 329.423 95.9188" stroke="#3A65C9" stroke-width="2.1337" stroke-miterlimit="10" stroke-linecap="round" stroke-linejoin="round"/>
<path d="M395.867 75.4681C408.872 62.463 408.872 41.3776 395.867 28.3724C382.862 15.3673 361.776 15.3673 348.771 28.3724C335.766 41.3776 335.766 62.463 348.771 75.4681C361.776 88.4732 382.862 88.4732 395.867 75.4681Z" fill="#3A65C9"/>
<path d="M372.322 77.3218C386.352 77.3218 397.726 65.948 397.726 51.9178C397.726 37.8876 386.352 26.5138 372.322 26.5138C358.292 26.5138 346.918 37.8876 346.918 51.9178C346.918 65.948 358.292 77.3218 372.322 77.3218Z" fill="white"/>
<path d="M358.204 40.3918L372.322 51.9178V74.6398" stroke="#FFCC40" stroke-width="2.1337" stroke-miterlimit="10" stroke-linecap="round" stroke-linejoin="round"/>
<path d="M469.837 160.879C477.718 163.44 494.224 169.998 510.293 176.562C535.33 186.789 552.822 209.819 556.009 236.676C560.129 271.401 564.35 308.684 565.673 320.008C568.553 344.657 552.05 368.661 538.848 370.461L543.949 388.164H405.327L372.622 284.048C372.622 284.048 348.318 335.356 338.417 349.758C328.516 364.16 300.311 374.962 278.708 345.557C257.105 316.153 237.602 274.521 237.602 274.521L269.235 255.225L302.412 295.749L326.306 229.011C333.271 209.557 347.937 193.828 366.857 185.521L402.477 169.881L469.837 160.879Z" fill="#3A65C9"/>
<path d="M474.127 162.359C472.518 161.782 471.063 161.278 469.837 160.879L402.477 169.88L398.075 171.813C409.678 187.883 454.235 195.534 474.127 162.359Z" fill="#FFCC40"/>
<path d="M449.506 280.147H416.459L408.051 219.338H441.098L449.506 280.147Z" fill="white"/>
<path d="M437.751 221.825L445.453 277.532" stroke="#283847" stroke-width="1.0766" stroke-miterlimit="10"/>
<path d="M415.293 225.157C415.428 226.134 414.746 226.926 413.769 226.926C412.792 226.926 411.891 226.134 411.756 225.157C411.621 224.18 412.303 223.388 413.28 223.388C414.256 223.388 415.158 224.18 415.293 225.157Z" fill="#283847"/>
<path d="M421.16 225.157C421.295 226.134 420.613 226.926 419.636 226.926C418.659 226.926 417.758 226.134 417.623 225.157C417.488 224.18 418.17 223.388 419.147 223.388C420.124 223.388 421.025 224.18 421.16 225.157Z" fill="#283847"/>
<path d="M353.773 322.283L360.904 248.148L372.622 284.048L353.773 322.283Z" fill="#38518F"/>
<path d="M302.412 295.749L297.011 312.552" stroke="#1A294D" stroke-width="1.0668" stroke-miterlimit="10"/>
<path d="M284.496 352.338C305.093 373.032 329.379 362.904 338.417 349.757C338.794 349.209 339.194 348.601 339.611 347.95C333.881 339.984 324.263 334.755 313.362 334.755C300.567 334.755 289.543 341.958 284.496 352.338Z" fill="#38518F"/>
<path d="M463.536 278.647L521.445 325.154" stroke="#1A294D" stroke-width="1.0668" stroke-miterlimit="10"/>
<path d="M561.565 347.332C556.58 343.642 550.206 341.426 543.257 341.426C527.293 341.426 514.353 353.113 514.353 367.53C514.353 369.119 514.519 370.672 514.82 372.182C522.029 373.027 530.267 372.807 538.847 370.46C551.124 367.102 557.874 356.837 561.565 347.332Z" fill="#38518F"/>
<path d="M436.412 290.691L464.694 281.322L441.862 300.033L436.412 290.691Z" fill="#38518F"/>
<path d="M268.535 256.207L249.599 226.941C249.599 226.941 243.189 215.133 237 210.664C234.162 208.615 227.957 202.925 226.83 201.445C226.83 201.445 223.35 202.608 225.017 206.279C226.684 209.95 232.2 216.252 232.2 216.252C232.2 216.252 218.039 213.107 212.81 211.602C207.581 210.096 198.608 207.263 197.824 210.823C196.961 214.74 217.751 219.315 217.751 219.315C217.751 219.315 212.569 220.409 214.569 225.875C211.3 227.635 211.08 232.04 214.91 233.671C212.757 236.311 214.731 240.376 220.333 240.375C225.389 243.384 229.673 245.951 237.722 243.004L248.783 270.269L268.535 256.207Z" fill="#FF6969"/>
<path d="M217.751 219.315L228.761 222.417" stroke="#B82C2C" stroke-width="1.0668" stroke-miterlimit="10"/>
<path d="M214.569 225.875L227.982 229.108" stroke="#B82C2C" stroke-width="1.0668" stroke-miterlimit="10"/>
<path d="M214.91 233.671L227.102 234.376" stroke="#B82C2C" stroke-width="1.0668" stroke-miterlimit="10"/>
<path d="M220.333 240.375L227.198 239.7" stroke="#B82C2C" stroke-width="1.0668" stroke-miterlimit="10"/>
<path d="M229.073 239.666C229.073 239.666 231.51 237.521 228.977 234.341C231.275 232.799 230.226 230.117 229.432 229.081C231.564 228.067 232.415 224.3 229.483 222.403" stroke="#B82C2C" stroke-width="1.0668" stroke-miterlimit="10"/>
<path d="M231.044 227.314C231.044 227.314 232.932 234.545 241.357 235.792" stroke="#B82C2C" stroke-width="1.0668" stroke-miterlimit="10"/>
<path d="M269.107 257.494L243.293 286.077L237.602 274.521L269.107 257.494Z" fill="#38518F"/>
<path d="M459.792 277.512L451.543 267.701C451.543 267.701 455.399 247.524 443.42 239.262C443.42 239.262 447.343 252.662 440.774 255.643C434.205 258.624 422.538 256.716 411.968 247.664L411.44 243.462C411.44 243.462 408.542 250.198 412.71 253.13C411.206 256.656 410.463 259.675 413.86 261.347C411.828 263.943 412.773 268.018 415.329 269.044C412.929 273.545 417.229 277.045 421.83 277.531C424.803 277.845 435.818 278.15 435.818 278.15L443.847 287.441L459.792 277.512Z" fill="#FF6969"/>
<path d="M372.622 249.742H401.802C401.802 249.742 413.528 285.215 395.925 285.215C378.323 285.215 372.622 249.742 372.622 249.742Z" fill="#FFCC40"/>
<path d="M448.134 123.823C448.134 123.823 456.035 111.221 458.436 103.82C460.836 96.4188 452.835 96.7188 452.835 96.7188C453.935 88.5178 451.035 85.2168 444.634 85.0168C443.334 77.1158 434.432 73.1148 428.832 78.5158C420.831 70.5148 408.429 76.5158 408.729 87.9168C398.827 85.8168 395.233 108.07 409.632 111.546L436.833 126.983L448.134 123.823Z" fill="#330909"/>
<path d="M413.128 99.2198C413.128 99.2198 428.58 107.621 441.032 105.071C441.032 105.071 440.132 109.872 444.182 112.272L439.681 124.124L441.781 124.724C441.781 124.724 446.432 114.673 451.983 116.623C457.534 118.573 451.083 137.326 441.181 131.775L449.282 155.029L469.835 160.88C469.835 160.88 462.334 180.983 429.329 180.983C412.226 180.983 402.475 169.881 402.475 169.881L419.578 163.28L414.777 147.828C414.777 147.828 403.525 147.928 400.075 139.427C396.601 130.868 404.426 119.774 404.426 119.774L413.128 99.2198Z" fill="#FF6969"/>
<path d="M414.779 147.827C421.905 147.902 431.067 142.651 434.512 139.126C434.512 139.126 427.777 156.925 417.94 158.002L414.779 147.827Z" fill="#B82C2C"/>
<path d="M419.579 163.279L422.43 170.705" stroke="#B82C2C" stroke-width="1.0668" stroke-miterlimit="10"/>
<path d="M416.91 124.843C416.91 124.843 423.28 126.423 424.28 129.124H407.177C407.177 129.124 408.862 125.635 412.311 125.529C412.311 125.529 414.44 126.514 416.91 124.843Z" fill="#330909"/>
<path d="M411.628 129.124H420.529C420.529 129.124 421.479 140.101 418.229 140.101C414.979 140.101 411.628 129.124 411.628 129.124Z" fill="white"/>
<path d="M412.482 114.36C412.482 115.913 411.844 117.173 411.057 117.173C410.27 117.173 409.632 115.914 409.632 114.36C409.632 112.806 410.27 111.547 411.057 111.547C411.843 111.547 412.482 112.806 412.482 114.36Z" fill="#330909"/>
<path d="M423.92 118.931C424.707 118.931 425.345 117.671 425.345 116.118C425.345 114.564 424.707 113.305 423.92 113.305C423.133 113.305 422.495 114.564 422.495 116.118C422.495 117.671 423.133 118.931 423.92 118.931Z" fill="#330909"/>
<path d="M406.527 109.425L416.804 110.686C416.804 110.686 417.704 121.127 409.903 120.169C402.102 119.212 406.527 109.425 406.527 109.425Z" stroke="white" stroke-width="1.0668" stroke-miterlimit="10"/>
<path d="M420.116 111.092L430.392 112.353C430.392 112.353 431.292 122.794 423.491 121.836C415.691 120.88 420.116 111.092 420.116 111.092Z" stroke="white" stroke-width="1.0668" stroke-miterlimit="10"/>
<path d="M416.753 113.305L419.272 113.614" stroke="white" stroke-width="1.0668" stroke-miterlimit="10"/>
<path d="M430.184 116.118L445.87 118.759" stroke="white" stroke-width="1.0668" stroke-miterlimit="10"/>
<path d="M422.495 108.071L432.294 107.659" stroke="#330909" stroke-width="2.1337" stroke-miterlimit="10"/>
<path d="M419.272 108.221C419.272 108.221 414.77 104.28 410.461 105.519" stroke="#330909" stroke-width="2.1337" stroke-miterlimit="10"/>
<path d="M417.444 114.36L412.128 125.469C412.128 125.469 414.895 126.561 417.444 124.449" stroke="#330909" stroke-width="1.0668" stroke-miterlimit="10"/>
<path d="M442.583 126.974C442.583 126.974 445.883 128.124 446.434 126.974C446.984 125.824 444.284 124.073 444.284 124.073C444.284 124.073 447.434 118.272 450.385 119.322C453.335 120.372 449.485 126.823 449.485 126.823" stroke="#330909" stroke-width="1.0668" stroke-miterlimit="10"/>
<path d="M538.847 370.461C525.945 374.662 495.34 375.567 474.937 349.46C454.534 323.354 435.031 288.248 435.031 288.248" stroke="#1A294D" stroke-width="1.0668" stroke-miterlimit="10"/>
<path d="M372.622 284.048L356.92 235.94" stroke="#1A294D" stroke-width="1.0668" stroke-miterlimit="10"/>
<path d="M492.49 231.94L508.597 314.836" stroke="#1A294D" stroke-width="1.0668" stroke-miterlimit="10"/>
<path d="M433.531 291.646L467.337 280.447L462.036 274.521L429.631 286.348L433.531 291.646Z" fill="white"/>
<path d="M237.602 276.997L272.257 255.543L267.907 248.792L233.167 269.645L237.602 276.997Z" fill="white"/>
<path d="M404.877 417.494C422.194 417.494 436.232 413.934 436.232 409.543C436.232 405.152 422.194 401.592 404.877 401.592C387.56 401.592 373.522 405.152 373.522 409.543C373.522 413.934 387.56 417.494 404.877 417.494Z" fill="#FFCC40"/>
<path d="M382.89 357.88L386.362 408.584H386.405C386.405 409.74 394.675 410.678 404.877 410.678C415.079 410.678 423.349 409.74 423.349 408.584H423.392L426.864 357.88H382.89Z" fill="#FF5521"/>
<path d="M424.017 401.591C417.248 401.591 413.52 394.46 413.52 381.512C413.52 372.587 420.01 365.325 427.987 365.325C432.085 365.325 436.223 367.282 439.056 370.56C441.825 373.762 443.024 377.761 442.432 381.819C440.922 392.167 432.145 401.591 424.017 401.591ZM427.987 369.58C422.356 369.58 417.775 374.932 417.775 381.512C417.775 385.224 418.225 397.336 424.018 397.336C429.386 397.336 436.918 390.14 438.222 381.204C438.633 378.387 437.787 375.595 435.838 373.342C433.8 370.987 430.866 369.58 427.987 369.58Z" fill="#FF5521"/>
<path d="M400.054 354.11C398.34 349.702 396.136 347.498 398.095 342.355C400.054 337.212 402.519 335.621 402.695 330.968C402.87 326.315 400.011 322.152 400.011 322.152C400.011 322.152 408.422 322.361 408.503 332.437C408.565 340.126 401.034 341.784 400.054 354.11Z" fill="white"/>
<path d="M411.352 354.11C409.638 349.702 407.434 347.498 409.393 342.355C411.352 337.212 413.817 335.621 413.993 330.968C414.168 326.315 411.309 322.152 411.309 322.152C411.309 322.152 419.72 322.361 419.801 332.437C419.863 340.126 412.332 341.784 411.352 354.11Z" fill="white"/>
<path d="M214.776 316.768L205.447 299.871L196.118 316.768C194.243 320.165 190.669 322.274 186.789 322.274H124.539C118.654 322.274 113.883 327.045 113.883 332.93V409.313C113.883 415.198 118.654 419.969 124.539 419.969H286.354C292.239 419.969 297.01 415.198 297.01 409.313V332.93C297.01 327.045 292.239 322.274 286.354 322.274H224.104C220.225 322.274 216.652 320.165 214.776 316.768Z" fill="#BEDBF7"/>
<path d="M167.992 332.401V411.087" stroke="white" stroke-width="1.2169" stroke-miterlimit="10"/>
<path d="M139.245 348.424C133.078 349.107 128.076 354.095 127.375 360.261C126.926 364.209 128.184 367.86 130.504 370.581C134.018 374.704 136.645 379.507 138.747 384.5L140.117 387.754C140.367 388.347 141.207 388.347 141.457 387.754L143.268 383.453C145.292 378.646 148.162 374.28 151.394 370.187C153.207 367.891 154.289 364.994 154.289 361.841C154.29 353.876 147.393 347.521 139.245 348.424ZM140.788 367.08C137.894 367.08 135.548 364.734 135.548 361.84C135.548 358.946 137.894 356.6 140.788 356.6C143.682 356.6 146.028 358.946 146.028 361.84C146.027 364.734 143.681 367.08 140.788 367.08Z" fill="#FF5521"/>
<path d="M190.926 338.94V356.562H188.792V341.177H188.689L184.386 344.034V341.865L188.792 338.94H190.926ZM201.742 356.803C200.445 356.803 199.341 356.45 198.429 355.745C197.517 355.033 196.82 354.004 196.338 352.655C195.856 351.302 195.615 349.667 195.615 347.751C195.615 345.846 195.856 344.22 196.338 342.872C196.826 341.518 197.526 340.486 198.438 339.774C199.356 339.057 200.457 338.699 201.742 338.699C203.027 338.699 204.125 339.057 205.037 339.774C205.955 340.486 206.655 341.518 207.137 342.872C207.625 344.22 207.868 345.846 207.868 347.751C207.868 349.667 207.627 351.302 207.146 352.655C206.664 354.004 205.967 355.033 205.055 355.745C204.143 356.45 203.038 356.803 201.742 356.803ZM201.742 354.91C203.027 354.91 204.025 354.29 204.736 353.051C205.448 351.812 205.803 350.045 205.803 347.751C205.803 346.225 205.64 344.926 205.313 343.853C204.992 342.78 204.527 341.963 203.919 341.401C203.317 340.838 202.591 340.557 201.742 340.557C200.468 340.557 199.473 341.185 198.756 342.442C198.039 343.692 197.68 345.462 197.68 347.751C197.68 349.277 197.841 350.573 198.162 351.64C198.484 352.707 198.945 353.519 199.548 354.075C200.156 354.632 200.887 354.91 201.742 354.91ZM212.653 354.308C212.228 354.308 211.864 354.156 211.56 353.852C211.256 353.547 211.104 353.183 211.104 352.759C211.104 352.334 211.256 351.97 211.56 351.666C211.864 351.362 212.228 351.21 212.653 351.21C213.077 351.21 213.441 351.362 213.745 351.666C214.049 351.97 214.201 352.334 214.201 352.759C214.201 353.04 214.13 353.298 213.986 353.533C213.849 353.768 213.662 353.958 213.427 354.101C213.198 354.239 212.939 354.308 212.653 354.308ZM212.653 345.393C212.228 345.393 211.864 345.241 211.56 344.937C211.256 344.633 211.104 344.269 211.104 343.844C211.104 343.42 211.256 343.056 211.56 342.752C211.864 342.447 212.228 342.295 212.653 342.295C213.077 342.295 213.441 342.447 213.745 342.752C214.049 343.056 214.201 343.42 214.201 343.844C214.201 344.125 214.13 344.384 213.986 344.619C213.849 344.854 213.662 345.043 213.427 345.187C213.198 345.324 212.939 345.393 212.653 345.393ZM223.765 356.803C222.63 356.803 221.617 356.608 220.728 356.218C219.845 355.828 219.142 355.286 218.62 354.592C218.104 353.892 217.823 353.08 217.777 352.156H219.945C219.991 352.724 220.186 353.215 220.53 353.628C220.874 354.035 221.325 354.351 221.881 354.574C222.437 354.798 223.054 354.91 223.731 354.91C224.488 354.91 225.159 354.778 225.745 354.514C226.33 354.25 226.789 353.883 227.121 353.413C227.454 352.942 227.62 352.397 227.62 351.778C227.62 351.13 227.46 350.559 227.138 350.065C226.817 349.566 226.347 349.176 225.727 348.895C225.108 348.614 224.351 348.474 223.456 348.474H222.045V346.581H223.456C224.156 346.581 224.769 346.454 225.297 346.202C225.831 345.95 226.246 345.594 226.545 345.135C226.849 344.676 227.001 344.137 227.001 343.517C227.001 342.921 226.869 342.402 226.605 341.96C226.341 341.518 225.968 341.174 225.486 340.927C225.01 340.681 224.448 340.557 223.8 340.557C223.192 340.557 222.618 340.669 222.079 340.893C221.545 341.111 221.109 341.429 220.771 341.848C220.433 342.261 220.249 342.76 220.22 343.345H218.155C218.19 342.422 218.468 341.613 218.99 340.919C219.512 340.219 220.195 339.674 221.038 339.284C221.887 338.894 222.819 338.699 223.834 338.699C224.924 338.699 225.859 338.92 226.639 339.361C227.42 339.797 228.019 340.374 228.438 341.091C228.857 341.808 229.066 342.582 229.066 343.414C229.066 344.406 228.805 345.253 228.283 345.952C227.767 346.652 227.064 347.137 226.175 347.407V347.544C227.288 347.728 228.157 348.201 228.782 348.964C229.407 349.721 229.72 350.659 229.72 351.778C229.72 352.736 229.459 353.596 228.937 354.359C228.421 355.116 227.715 355.713 226.82 356.149C225.925 356.585 224.907 356.803 223.765 356.803ZM238.987 356.803C237.691 356.803 236.586 356.45 235.674 355.745C234.762 355.033 234.065 354.004 233.583 352.655C233.102 351.302 232.861 349.667 232.861 347.751C232.861 345.846 233.102 344.22 233.583 342.872C234.071 341.518 234.771 340.486 235.683 339.774C236.601 339.057 237.702 338.699 238.987 338.699C240.272 338.699 241.371 339.057 242.283 339.774C243.201 340.486 243.9 341.518 244.382 342.872C244.87 344.22 245.114 345.846 245.114 347.751C245.114 349.667 244.873 351.302 244.391 352.655C243.909 354.004 243.212 355.033 242.3 355.745C241.388 356.45 240.284 356.803 238.987 356.803ZM238.987 354.91C240.272 354.91 241.27 354.29 241.982 353.051C242.693 351.812 243.048 350.045 243.048 347.751C243.048 346.225 242.885 344.926 242.558 343.853C242.237 342.78 241.772 341.963 241.164 341.401C240.562 340.838 239.836 340.557 238.987 340.557C237.714 340.557 236.718 341.185 236.001 342.442C235.284 343.692 234.926 345.462 234.926 347.751C234.926 349.277 235.086 350.573 235.408 351.64C235.729 352.707 236.191 353.519 236.793 354.075C237.401 354.632 238.132 354.91 238.987 354.91Z" fill="#3A65C9"/>
<path d="M272.207 369.881H184.394C183.123 369.881 182.094 368.851 182.094 367.581C182.094 366.311 183.124 365.281 184.394 365.281H272.207C273.477 365.281 274.507 366.311 274.507 367.581C274.508 368.851 273.478 369.881 272.207 369.881Z" fill="white"/>
<path d="M272.207 382.283H184.394C183.123 382.283 182.094 381.253 182.094 379.983C182.094 378.712 183.124 377.683 184.394 377.683H272.207C273.477 377.683 274.507 378.713 274.507 379.983C274.508 381.253 273.478 382.283 272.207 382.283Z" fill="white"/>
<path d="M214.699 409.087H184.395C183.124 409.087 182.095 408.057 182.095 406.787C182.095 405.517 183.125 404.487 184.395 404.487H214.699C215.97 404.487 216.999 405.517 216.999 406.787C216.999 408.057 215.969 409.087 214.699 409.087Z" fill="white"/>
<path d="M84.2792 140.101V201.445" stroke="#BEDBF7" stroke-width="1.0668" stroke-miterlimit="10"/>
<path d="M601.246 114.936C595.739 120.443 589.756 123.39 587.884 121.519C586.012 119.647 588.959 113.665 594.467 108.157C599.974 102.65 605.957 99.7028 607.828 101.575C609.7 103.447 606.753 109.429 601.246 114.936Z" fill="#BEDBF7"/>
<path d="M581.993 219.262C576.486 224.769 570.503 227.716 568.631 225.845C566.759 223.973 569.706 217.991 575.214 212.484C580.721 206.977 586.704 204.03 588.575 205.901C590.447 207.772 587.5 213.754 581.993 219.262Z" fill="#BEDBF7"/>
<path d="M287.885 47.7688C282.378 53.2758 276.396 56.2228 274.524 54.3508C272.652 52.4788 275.599 46.4968 281.106 40.9898C286.613 35.4828 292.596 32.5348 294.467 34.4068C296.34 36.2798 293.393 42.2618 287.885 47.7688Z" fill="#BEDBF7"/>
<path d="M585.164 164.939C567.263 182.84 551.326 195.925 549.566 194.165C547.806 192.405 560.892 176.468 578.792 158.567C596.693 140.666 612.63 127.581 614.389 129.341C616.15 131.101 603.065 147.039 585.164 164.939Z" fill="#BEDBF7"/>
</svg>
