<svg width="416" height="256" viewBox="0 0 416 256" fill="none" xmlns="http://www.w3.org/2000/svg">
<path d="M19 20.7C30 26.5 182.8 109.8 188.5 112.8C194.2 115.8 200 117.2 209 117.2C218 117.2 223.8 115.8 229.5 112.8C235.2 109.8 388 26.5 399 20.7C403.1 18.6 410 14.8 411.5 10.5C414.1 2.9 411.3 0 400.2 0H209H17.8C6.7 0 3.89999 3 6.49999 10.5C7.99999 14.9 14.9 18.6 19 20.7Z" fill="url(#paint0_linear_20_3848)"/>
<path d="M407.7 25.2C399.5 29.4 325.9 81.8 277.2 113.3L359.4 205.8C361.4 207.8 362.3 210.2 361.2 211.4C360 212.5 357.4 211.9 355.3 210L256.7 126.8C241.8 136.4 231.3 143 229.5 144C221.8 147.9 216.4 148.4 209 148.4C201.6 148.4 196.2 147.9 188.5 144C186.6 143 176.2 136.4 161.3 126.8L62.7 210C60.7 212 58 212.6 56.8 211.4C55.6 210.3 56.5 207.8 58.5 205.8L140.6 113.3C91.9 81.8 17.5 29.4 9.3 25.2C0.499999 20.7 0 26 0 30.1C0 34.2 0 235.1 0 235.1C0 244.4 13.7 256 23.5 256H209H394.5C404.3 256 416 244.3 416 235.1C416 235.1 416 34.1 416 30.1C416 25.9 416.6 20.7 407.7 25.2Z" fill="url(#paint1_linear_20_3848)"/>
<defs>
<linearGradient id="paint0_linear_20_3848" x1="63.2926" y1="17.3969" x2="245.926" y2="228.074" gradientUnits="userSpaceOnUse">
<stop stop-color="#A452AC"/>
<stop offset="0.555011" stop-color="#9558AD"/>
<stop offset="1" stop-color="#7952A3"/>
</linearGradient>
<linearGradient id="paint1_linear_20_3848" x1="59" y1="57.9824" x2="380.604" y2="249.195" gradientUnits="userSpaceOnUse">
<stop stop-color="#A452AC"/>
<stop offset="0.555011" stop-color="#9558AD"/>
<stop offset="1" stop-color="#7952A3"/>
</linearGradient>
</defs>
</svg>
