<svg width="188" height="27" viewBox="0 0 188 27" fill="none" xmlns="http://www.w3.org/2000/svg">
<path d="M0.926492 26V0.545454H18.6751V5.5419H7.07884V10.7621H17.7678V15.771H7.07884V21.0036H18.6751V26H0.926492ZM41.0472 6.90909L34.4972 26H27.5369L20.9993 6.90909H27.4002L30.9176 20.0589H31.1165L34.6463 6.90909H41.0472ZM51.6864 26.3604C49.6895 26.3604 47.966 25.9669 46.516 25.1797C45.0742 24.3842 43.9639 23.2532 43.185 21.7866C42.4144 20.3117 42.0291 18.5592 42.0291 16.5291C42.0291 14.5571 42.4186 12.8336 43.1974 11.3587C43.9763 9.87547 45.0742 8.72372 46.4911 7.90341C47.908 7.07481 49.5777 6.66051 51.5 6.66051C52.8589 6.66051 54.1018 6.8718 55.2287 7.29439C56.3556 7.71697 57.3292 8.34257 58.1495 9.17116C58.9698 9.99976 59.6078 11.0231 60.0636 12.2411C60.5193 13.4509 60.7472 14.8388 60.7472 16.4048V17.9212H44.1545V14.3913H55.092C55.0837 13.745 54.9304 13.1692 54.6321 12.6637C54.3338 12.1583 53.9237 11.7647 53.4016 11.483C52.8879 11.1929 52.2955 11.0479 51.6243 11.0479C50.9448 11.0479 50.3358 11.2012 49.7972 11.5078C49.2586 11.8061 48.8319 12.2163 48.517 12.7383C48.2022 13.252 48.0365 13.8362 48.0199 14.4908V18.0827C48.0199 18.8616 48.1732 19.5452 48.4798 20.1335C48.7863 20.7135 49.2214 21.1651 49.7848 21.4883C50.3482 21.8114 51.0194 21.973 51.7983 21.973C52.3369 21.973 52.8258 21.8984 53.2649 21.7493C53.7041 21.6001 54.0811 21.3806 54.396 21.0906C54.7108 20.8005 54.947 20.4442 55.1044 20.0217L60.685 20.1832C60.453 21.4344 59.9434 22.524 59.1562 23.4521C58.3774 24.3718 57.354 25.0885 56.0863 25.6023C54.8185 26.1077 53.3519 26.3604 51.6864 26.3604ZM69.9291 15.1122V26H63.8513V6.90909H69.6308V10.4141H69.8421C70.2646 9.24574 70.9855 8.33014 72.0047 7.66726C73.0239 6.99609 74.2378 6.66051 75.6464 6.66051C76.9887 6.66051 78.1529 6.96295 79.1389 7.56783C80.1333 8.16442 80.9039 9.0013 81.4507 10.0785C82.0059 11.1474 82.2793 12.3986 82.271 13.832V26H76.1933V15.0252C76.2016 13.9646 75.9323 13.136 75.3854 12.5394C74.8468 11.9428 74.0969 11.6445 73.1357 11.6445C72.4977 11.6445 71.9343 11.7854 71.4454 12.0671C70.9648 12.3406 70.5919 12.7341 70.3268 13.2479C70.0699 13.7616 69.9374 14.383 69.9291 15.1122ZM96.8098 6.90909V11.3835H84.7662V6.90909H96.8098ZM87.2892 2.33523H93.367V19.9968C93.367 20.3697 93.425 20.6721 93.541 20.9041C93.6653 21.1278 93.8435 21.2894 94.0755 21.3888C94.3075 21.48 94.585 21.5256 94.9082 21.5256C95.1402 21.5256 95.3846 21.5049 95.6415 21.4634C95.9067 21.4137 96.1055 21.3723 96.2381 21.3391L97.1578 25.7266C96.8678 25.8094 96.4577 25.913 95.9274 26.0373C95.4054 26.1616 94.7798 26.2403 94.0506 26.2734C92.6254 26.3397 91.4032 26.174 90.3841 25.7763C89.3732 25.3703 88.5984 24.7405 88.0598 23.8871C87.5295 23.0336 87.2727 21.9606 87.2892 20.668V2.33523ZM100.321 26V0.545454H118.07V5.5419H106.473V10.7621H117.162V15.771H106.473V21.0036H118.07V26H100.321ZM127.304 26.3232C126.086 26.3232 125.005 26.1201 124.06 25.7141C123.124 25.2998 122.382 24.6784 121.836 23.8498C121.297 23.0129 121.028 21.9647 121.028 20.7053C121.028 19.6446 121.214 18.7498 121.587 18.0206C121.96 17.2914 122.474 16.699 123.128 16.2433C123.783 15.7875 124.537 15.4437 125.39 15.2116C126.244 14.9714 127.155 14.8098 128.125 14.7269C129.21 14.6275 130.084 14.5239 130.747 14.4162C131.41 14.3002 131.891 14.1386 132.189 13.9315C132.496 13.716 132.649 13.4136 132.649 13.0241V12.962C132.649 12.324 132.429 11.831 131.99 11.483C131.551 11.1349 130.958 10.9609 130.213 10.9609C129.409 10.9609 128.763 11.1349 128.274 11.483C127.785 11.831 127.474 12.3116 127.342 12.9247L121.736 12.7259C121.902 11.5658 122.329 10.5301 123.016 9.61861C123.712 8.69886 124.665 7.97798 125.875 7.45597C127.093 6.92566 128.556 6.66051 130.262 6.66051C131.48 6.66051 132.603 6.80552 133.631 7.09552C134.658 7.37725 135.553 7.79155 136.315 8.33842C137.078 8.87701 137.666 9.53989 138.08 10.3271C138.503 11.1142 138.714 12.0133 138.714 13.0241V26H132.997V23.3402H132.848C132.508 23.9865 132.073 24.5334 131.543 24.9808C131.021 25.4283 130.403 25.7638 129.691 25.9876C128.986 26.2113 128.191 26.3232 127.304 26.3232ZM129.181 22.3459C129.836 22.3459 130.424 22.2133 130.946 21.9482C131.476 21.683 131.899 21.3184 132.214 20.8544C132.529 20.3821 132.686 19.8352 132.686 19.2138V17.3991C132.512 17.4903 132.301 17.5732 132.052 17.6477C131.812 17.7223 131.547 17.7927 131.257 17.859C130.967 17.9253 130.668 17.9833 130.362 18.033C130.055 18.0827 129.761 18.1283 129.479 18.1697C128.908 18.2609 128.419 18.4018 128.013 18.5923C127.615 18.7829 127.308 19.0315 127.093 19.3381C126.886 19.6364 126.782 19.9927 126.782 20.407C126.782 21.0367 127.006 21.5173 127.453 21.8487C127.909 22.1802 128.485 22.3459 129.181 22.3459ZM159.098 12.7383L153.517 12.8874C153.459 12.4897 153.302 12.1375 153.045 11.831C152.788 11.5161 152.452 11.2717 152.038 11.0977C151.632 10.9154 151.16 10.8242 150.621 10.8242C149.917 10.8242 149.316 10.9651 148.819 11.2468C148.33 11.5285 148.09 11.9097 148.098 12.3903C148.09 12.7631 148.239 13.0863 148.545 13.3597C148.86 13.6332 149.42 13.8527 150.223 14.0185L153.902 14.7145C155.808 15.0791 157.225 15.6839 158.153 16.5291C159.089 17.3743 159.562 18.4929 159.57 19.8849C159.562 21.1941 159.172 22.3335 158.402 23.3029C157.639 24.2724 156.595 25.0264 155.27 25.565C153.944 26.0953 152.427 26.3604 150.721 26.3604C147.994 26.3604 145.844 25.8011 144.27 24.6825C142.704 23.5556 141.809 22.0476 141.585 20.1584L147.588 20.0092C147.721 20.7053 148.065 21.2356 148.62 21.6001C149.175 21.9647 149.884 22.147 150.745 22.147C151.524 22.147 152.158 22.002 152.647 21.712C153.136 21.422 153.384 21.0367 153.393 20.5561C153.384 20.1252 153.194 19.7814 152.821 19.5245C152.448 19.2594 151.864 19.0522 151.069 18.9031L147.738 18.2692C145.824 17.9212 144.398 17.279 143.462 16.3427C142.526 15.3981 142.062 14.1966 142.07 12.7383C142.062 11.4622 142.401 10.3726 143.089 9.46946C143.777 8.558 144.755 7.86198 146.022 7.38139C147.29 6.9008 148.786 6.66051 150.509 6.66051C153.094 6.66051 155.133 7.20324 156.624 8.28871C158.116 9.36588 158.94 10.8491 159.098 12.7383ZM171.486 26.3604C169.489 26.3604 167.766 25.9669 166.316 25.1797C164.874 24.3842 163.764 23.2532 162.985 21.7866C162.214 20.3117 161.829 18.5592 161.829 16.5291C161.829 14.5571 162.218 12.8336 162.997 11.3587C163.776 9.87547 164.874 8.72372 166.291 7.90341C167.708 7.07481 169.377 6.66051 171.3 6.66051C172.659 6.66051 173.902 6.8718 175.028 7.29439C176.155 7.71697 177.129 8.34257 177.949 9.17116C178.77 9.99976 179.408 11.0231 179.863 12.2411C180.319 13.4509 180.547 14.8388 180.547 16.4048V17.9212H163.954V14.3913H174.892C174.883 13.745 174.73 13.1692 174.432 12.6637C174.134 12.1583 173.723 11.7647 173.201 11.483C172.688 11.1929 172.095 11.0479 171.424 11.0479C170.745 11.0479 170.136 11.2012 169.597 11.5078C169.058 11.8061 168.632 12.2163 168.317 12.7383C168.002 13.252 167.836 13.8362 167.82 14.4908V18.0827C167.82 18.8616 167.973 19.5452 168.28 20.1335C168.586 20.7135 169.021 21.1651 169.585 21.4883C170.148 21.8114 170.819 21.973 171.598 21.973C172.137 21.973 172.626 21.8984 173.065 21.7493C173.504 21.6001 173.881 21.3806 174.196 21.0906C174.511 20.8005 174.747 20.4442 174.904 20.0217L180.485 20.1832C180.253 21.4344 179.743 22.524 178.956 23.4521C178.177 24.3718 177.154 25.0885 175.886 25.6023C174.618 26.1077 173.152 26.3604 171.486 26.3604Z" fill="#3A66C9"/>
<path d="M187.535 26H183.3V21.835H187.535V26Z" fill="#FF9D38"/>
</svg>
